<svg xmlns="http://www.w3.org/2000/svg" xmlns:xlink="http://www.w3.org/1999/xlink" width="20" height="20" viewBox="0 0 20 20">
  <defs>
    <clipPath id="clip-path">
      <rect id="Rectangle_3120" data-name="Rectangle 3120" width="20" height="20" transform="translate(3684 -5401)" fill="#fff"/>
    </clipPath>
  </defs>
  <g id="Bitcoin" transform="translate(-3684 5401)" clip-path="url(#clip-path)">
    <path id="Path_1734" data-name="Path 1734" d="M23.137,12.992c.313-2.089-1.279-3.212-3.453-3.961l.706-2.83-1.722-.429L17.98,8.528c-.452-.114-.917-.219-1.38-.325l.693-2.773L15.57,5l-.706,2.829c-.375-.086-.743-.169-1.1-.259l0-.009-2.376-.593-.458,1.84s1.279.293,1.252.311a.917.917,0,0,1,.8,1l-.8,3.224a1.531,1.531,0,0,1,.179.057l-.182-.045-1.126,4.516a.628.628,0,0,1-.79.409c.018.025-1.252-.312-1.252-.312l-.855,1.971L10.4,20.5c.417.1.825.214,1.227.317l-.713,2.862,1.721.429.706-2.83c.47.127.927.244,1.373.356l-.7,2.818,1.722.429.713-2.856c2.938.556,5.146.332,6.076-2.325.749-2.139-.037-3.373-1.582-4.177a2.746,2.746,0,0,0,2.2-2.529ZM19.2,18.511c-.531,2.14-4.134.983-5.3.693l.947-3.792C16.014,15.7,19.757,16.281,19.2,18.511Zm.533-5.55c-.485,1.946-3.483.957-4.454.715l.857-3.438c.972.242,4.1.694,3.6,2.723Z" transform="translate(3672.464 -5401.674) rotate(-14)" fill="#d3ac35"/>
  </g>
</svg>
